<svg width="227" height="227" viewBox="0 0 227 227" fill="none" xmlns="http://www.w3.org/2000/svg">
<g clip-path="url(#clip0_2159_1258)">
<path fill-rule="evenodd" clip-rule="evenodd" d="M113.456 23.7405C132.57 23.6962 151.181 29.8631 166.486 41.3125H160.563C159.216 41.3125 157.925 41.8474 156.973 42.7995C156.021 43.7516 155.486 45.0429 155.486 46.3894V46.781C155.486 48.1274 156.021 49.4188 156.973 50.3709C157.925 51.3229 159.216 51.8578 160.563 51.8578H178.205C181.556 55.4674 184.594 59.3556 187.285 63.4802H195.66C197.11 63.4802 198.501 64.0562 199.526 65.0816C200.552 66.1069 201.128 67.4975 201.128 68.9475V69.2528C201.128 70.4391 200.742 71.5932 200.029 72.5411C199.315 73.489 198.313 74.1793 197.173 74.5079H189.455C187.8 74.5079 186.212 75.1656 185.041 76.3363C183.871 77.507 183.213 79.0948 183.213 80.7504V82.7026C183.213 84.3582 183.871 85.946 185.041 87.1167C186.212 88.2874 187.8 88.9451 189.455 88.9451H215.976C217.326 89.2849 218.524 90.0656 219.38 91.1636C220.236 92.2615 220.701 93.6138 220.701 95.006V95.3544C220.701 97.01 220.043 98.5979 218.872 99.7685C217.702 100.939 216.114 101.597 214.458 101.597H200.725C200.998 104.371 201.136 107.181 201.138 110.027C201.138 157.69 161.886 196.329 113.466 196.329C95.1739 196.411 77.3149 190.765 62.3944 180.183C47.4739 169.601 36.2406 154.613 30.2704 137.322H26.9789C26.419 137.322 25.8766 137.127 25.445 136.77C25.0133 136.414 24.7194 135.918 24.6138 135.368C24.5083 134.818 24.5975 134.249 24.8664 133.757C25.1352 133.266 25.5667 132.884 26.0868 132.677H30.1456C31.492 132.677 32.7834 132.142 33.7355 131.19C34.6875 130.238 35.2224 128.946 35.2224 127.6V127.209C35.2224 125.863 34.6875 124.572 33.7355 123.619C32.7834 122.667 31.492 122.132 30.1456 122.132H26.6498L26.6407 122.07H17.9716C16.9187 122.052 15.9149 121.622 15.1766 120.871C14.4383 120.12 14.0246 119.109 14.0246 118.056C14.0246 117.003 14.4383 115.992 15.1766 115.241C15.9149 114.491 16.9187 114.06 17.9716 114.042H25.8757C25.8137 112.712 25.7826 111.374 25.7826 110.028C25.7711 97.6953 28.4479 85.5085 33.6266 74.3161H19.5912C16.6914 74.3161 13.9103 73.1642 11.8597 71.1138C9.80908 69.0634 8.65692 66.2825 8.65662 63.3826V62.772C8.65662 59.981 9.72385 57.2957 11.6397 55.2661C13.5555 53.2365 16.1749 52.0163 18.9613 51.8556H68.4042C69.4283 51.8381 70.4046 51.419 71.1227 50.6886C71.8407 49.9582 72.2431 48.9749 72.2431 47.9506C72.2431 46.9263 71.8407 45.943 71.1227 45.2126C70.4046 44.4822 69.4283 44.0631 68.4042 44.0456H56.9588L57.2448 43.8084H51.5528C49.585 43.8084 47.6979 43.0267 46.3064 41.6353C44.915 40.2439 44.1333 38.3567 44.1333 36.3889V35.9746C44.1333 34.0069 44.915 32.1197 46.3064 30.7283C47.6979 29.3368 49.585 28.5551 51.5528 28.5551H84.5041C93.8208 25.3554 103.605 23.7283 113.456 23.7405Z" fill="#FBFBFB"/>
<path d="M68.3178 77.2269H65.4588C65.4302 74.5011 64.3274 71.8966 62.3898 69.9792C60.4522 68.0618 57.8364 66.9863 55.1104 66.9863C52.3845 66.9863 49.7686 68.0618 47.831 69.9792C45.8934 71.8966 44.7906 74.5011 44.7621 77.2269H42.6771C41.3796 77.3357 40.1703 77.928 39.2889 78.8864C38.4075 79.8447 37.9183 81.0993 37.9183 82.4013C37.9183 83.7034 38.4075 84.9579 39.2889 85.9163C40.1703 86.8747 41.3796 87.467 42.6771 87.5758H68.3144C69.612 87.467 70.8212 86.8747 71.7026 85.9163C72.584 84.9579 73.0732 83.7034 73.0732 82.4013C73.0732 81.0993 72.584 79.8447 71.7026 78.8864C70.8212 77.928 69.612 77.3357 68.3144 77.2269H68.3178Z" fill="url(#paint0_linear_2159_1258)"/>
<path d="M141.39 47.8068H139.347C139.347 45.8389 138.566 43.9515 137.174 42.56C135.783 41.1685 133.895 40.3867 131.927 40.3867C129.959 40.3867 128.072 41.1685 126.68 42.56C125.289 43.9515 124.507 45.8389 124.507 47.8068H123.012C122.082 47.8849 121.215 48.3095 120.584 48.9966C119.952 49.6837 119.601 50.5831 119.601 51.5165C119.601 52.45 119.952 53.3493 120.584 54.0364C121.215 54.7235 122.082 55.1482 123.012 55.2263H141.399C142.33 55.1482 143.196 54.7235 143.828 54.0364C144.46 53.3493 144.811 52.45 144.811 51.5165C144.811 50.5831 144.46 49.6837 143.828 48.9966C143.196 48.3095 142.33 47.8849 141.399 47.8068H141.39Z" fill="url(#paint1_linear_2159_1258)"/>
<path fill-rule="evenodd" clip-rule="evenodd" d="M108.431 155.73C132.4 155.73 153.984 157.686 169.072 160.808C183.827 160.907 195.709 165.327 195.709 170.765C195.709 175.078 188.247 178.745 177.805 180.131C175.308 180.868 172.506 181.563 169.425 182.209C169.505 182.62 169.545 183.038 169.545 183.457C169.545 192.947 148.914 200.639 123.464 200.639C100.568 200.639 81.5724 194.412 77.9915 186.253C47.4418 183.932 25.8394 178.222 25.8394 171.546C25.8394 162.812 62.8165 155.73 108.431 155.73Z" fill="#F7F7F7"/>
<path d="M178.258 150.095C178.291 150.223 178.332 150.36 178.381 150.504L178.479 150.89C178.507 150.992 178.524 151.098 178.527 151.204C178.535 151.63 178.406 152.048 178.161 152.398C177.924 152.738 177.593 153.001 177.209 153.157C177.054 153.173 176.899 153.181 176.744 153.181C176.599 153.198 176.452 153.206 176.305 153.205H175.841L172.033 153.252V157.279C172.033 157.874 172.045 158.473 172.069 159.076C172.094 159.679 172.122 160.222 172.154 160.704C172.187 161.282 172.228 161.837 172.277 162.367H168.759L168.832 161.427C168.848 161.057 168.864 160.554 168.881 159.919C168.898 159.284 168.906 158.436 168.906 157.375V153.688C168.653 153.92 168.322 154.049 167.979 154.05C167.725 154.056 167.476 153.989 167.259 153.857C167.051 153.724 166.88 153.542 166.759 153.327L164.001 153.183C163.478 153.063 163.008 152.78 162.658 152.375C162.304 151.972 162.114 151.45 162.126 150.914C162.125 150.825 162.133 150.736 162.151 150.649C162.168 150.566 162.192 150.486 162.224 150.408L162.835 149.01C162.866 148.662 162.97 148.325 163.14 148.021C163.308 147.72 163.527 147.451 163.787 147.227L167.619 140.209H167.644C167.933 139.672 168.304 139.184 168.743 138.762C169.185 138.352 169.772 138.135 170.375 138.158C170.933 138.149 171.481 138.307 171.949 138.612C172.403 138.906 172.763 139.324 172.986 139.817L176.061 145.774C176.608 145.964 177.083 146.317 177.423 146.786C177.78 147.267 177.969 147.851 177.96 148.45C177.957 148.728 177.916 149.003 177.837 149.27L178.258 150.095Z" fill="url(#paint2_linear_2159_1258)"/>
<path d="M193.878 157.905C193.911 158.034 193.952 158.17 194.001 158.315L194.099 158.701C194.127 158.803 194.144 158.908 194.147 159.014C194.155 159.441 194.026 159.859 193.781 160.208C193.544 160.548 193.213 160.812 192.829 160.967C192.674 160.984 192.519 160.992 192.364 160.991C192.219 161.008 192.072 161.016 191.925 161.015H191.461L187.653 161.063V165.09C187.653 165.685 187.665 166.283 187.689 166.886C187.713 167.49 187.742 168.032 187.774 168.514C187.807 169.093 187.848 169.648 187.897 170.178H184.378L184.452 169.237C184.469 168.867 184.485 168.365 184.501 167.73C184.517 167.095 184.525 166.247 184.525 165.185V161.499C184.272 161.731 183.941 161.86 183.598 161.861C183.344 161.867 183.094 161.8 182.878 161.668C182.67 161.535 182.498 161.353 182.377 161.138L179.619 160.994C179.097 160.874 178.627 160.591 178.277 160.185C177.923 159.782 177.734 159.261 177.746 158.725C177.745 158.636 177.753 158.547 177.769 158.459C177.786 158.377 177.811 158.296 177.843 158.219L178.454 156.82C178.484 156.473 178.589 156.136 178.759 155.832C178.927 155.531 179.146 155.262 179.406 155.037L183.238 148.019H183.263C183.552 147.483 183.923 146.995 184.361 146.572C184.804 146.163 185.392 145.945 185.995 145.968C186.544 145.963 187.083 146.118 187.547 146.413C188.01 146.708 188.378 147.132 188.605 147.632L191.68 153.589C192.227 153.779 192.702 154.133 193.042 154.601C193.399 155.082 193.588 155.667 193.579 156.265C193.576 156.543 193.534 156.818 193.456 157.085L193.878 157.905Z" fill="url(#paint3_linear_2159_1258)"/>
<path d="M55.9214 155.101C55.9668 155.283 56.0239 155.477 56.0928 155.683L56.2301 156.231C56.2702 156.376 56.293 156.526 56.2982 156.676C56.3088 157.281 56.1289 157.874 55.784 158.371C55.4524 158.852 54.9879 159.227 54.447 159.449C54.2306 159.472 54.0131 159.484 53.7955 159.483C53.5906 159.507 53.3844 159.518 53.1781 159.517H52.5266L47.1785 159.585V165.301C47.1785 166.146 47.1955 166.996 47.2295 167.851C47.2636 168.707 47.3037 169.478 47.3499 170.162C47.3953 170.984 47.4524 171.771 47.5212 172.524H42.584L42.6873 171.187C42.71 170.662 42.7327 169.949 42.7554 169.048C42.7781 168.147 42.7894 166.943 42.7894 165.437V160.202C42.435 160.53 41.9698 160.713 41.4864 160.715C41.1299 160.723 40.7786 160.628 40.4752 160.441C40.1829 160.251 39.9417 159.993 39.7726 159.689L35.8988 159.483C35.1641 159.312 34.5034 158.91 34.0136 158.337C33.5138 157.764 33.2447 157.026 33.2588 156.265C33.2577 156.139 33.2692 156.013 33.2929 155.889C33.3168 155.772 33.3514 155.658 33.3962 155.548L34.2531 153.561C34.2961 153.068 34.4423 152.59 34.6821 152.158C34.9159 151.729 35.2233 151.345 35.5901 151.023L40.9768 141.068H41.0109C41.415 140.308 41.9341 139.615 42.5499 139.015C42.8571 138.727 43.2184 138.503 43.6127 138.356C44.0071 138.209 44.4267 138.142 44.8472 138.159C45.6328 138.148 46.4035 138.375 47.0582 138.809C47.6976 139.228 48.2034 139.822 48.5155 140.521L52.8353 148.975C53.6086 149.247 54.2792 149.75 54.7557 150.417C55.2586 151.1 55.5237 151.93 55.5105 152.779C55.5063 153.172 55.4487 153.564 55.3391 153.942L55.9214 155.101Z" fill="url(#paint4_linear_2159_1258)"/>
<path opacity="0.5" d="M81.6802 173.32L156.731 211.57L211.718 180.373L141.121 158.461L81.6802 173.32Z" fill="url(#paint5_linear_2159_1258)"/>
<path d="M87.8898 111.994L79.728 131.52H146.505L138.21 111.998L87.8898 111.994Z" fill="url(#paint6_linear_2159_1258)"/>
<path d="M79.728 131.52H146.505L144.396 173.301H81.8369L79.728 131.52Z" fill="url(#paint7_linear_2159_1258)"/>
<path d="M124.362 137.305H101.864C100.68 137.305 99.7211 138.264 99.7211 139.448C99.7211 140.631 100.68 141.59 101.864 141.59H124.362C125.545 141.59 126.505 140.631 126.505 139.448C126.505 138.264 125.545 137.305 124.362 137.305Z" fill="white"/>
<path d="M121.146 115.877H104.006C102.822 115.877 101.863 116.836 101.863 118.02C101.863 119.203 102.822 120.163 104.006 120.163H121.146C122.33 120.163 123.289 119.203 123.289 118.02C123.289 116.836 122.33 115.877 121.146 115.877Z" fill="white"/>
<path fill-rule="evenodd" clip-rule="evenodd" d="M113.115 164.033L107.286 167.097C107.157 167.166 107.011 167.197 106.866 167.186C106.72 167.176 106.58 167.125 106.462 167.04C106.344 166.954 106.252 166.837 106.197 166.702C106.142 166.566 106.126 166.418 106.151 166.275L107.264 159.784L102.548 155.187C102.444 155.085 102.37 154.956 102.335 154.815C102.3 154.673 102.305 154.525 102.35 154.386C102.395 154.247 102.478 154.124 102.59 154.03C102.701 153.936 102.837 153.875 102.981 153.854L109.498 152.908L112.413 147.006C112.477 146.875 112.577 146.765 112.701 146.688C112.824 146.611 112.967 146.57 113.113 146.57C113.259 146.57 113.401 146.611 113.525 146.688C113.649 146.765 113.749 146.875 113.813 147.006L116.728 152.908L123.245 153.854C123.389 153.875 123.525 153.936 123.636 154.03C123.748 154.124 123.831 154.247 123.876 154.386C123.921 154.525 123.926 154.673 123.891 154.815C123.856 154.956 123.782 155.085 123.678 155.187L118.962 159.784L120.075 166.275C120.1 166.418 120.084 166.566 120.029 166.702C119.974 166.837 119.882 166.954 119.764 167.04C119.646 167.125 119.506 167.176 119.36 167.186C119.215 167.197 119.069 167.166 118.94 167.097L113.111 164.033H113.115Z" fill="#E7EAF0"/>
<path d="M87.8433 111.994L88.3188 131.516H79.728L87.8433 111.994Z" fill="url(#paint8_linear_2159_1258)"/>
<path d="M138.389 111.998L137.914 131.52H146.505L138.389 111.998Z" fill="url(#paint9_linear_2159_1258)"/>
<path d="M96.8256 85.3639C97.0781 96.4537 100.714 101.907 107.735 101.725C118.266 101.449 122.461 87.0782 113.042 87.1392C106.616 89.5639 107.642 99.7796 125.688 104.113C139.25 105.493 131.168 120.837 121.686 124.461" stroke="#D1D6E2" stroke-width="1.00028" stroke-linecap="round" stroke-linejoin="round" stroke-dasharray="4 4"/>
<path d="M92.8527 79.1788L87.4959 81.2858L85.5279 64.0443L103.11 75.2543L98.3213 77.3198L87.3021 66.5423L96.0408 78.2964L95.9922 83.1657L92.8527 79.1788Z" fill="url(#paint10_linear_2159_1258)"/>
</g>
<defs>
<linearGradient id="paint0_linear_2159_1258" x1="88.7522" y1="80.7607" x2="48.2899" y2="81.0008" gradientUnits="userSpaceOnUse">
<stop stop-color="#E0E5EF" stop-opacity="0"/>
<stop offset="1" stop-color="#E0E5EF"/>
</linearGradient>
<linearGradient id="paint1_linear_2159_1258" x1="156.054" y1="50.3144" x2="127.039" y2="50.4857" gradientUnits="userSpaceOnUse">
<stop stop-color="#E0E5EF" stop-opacity="0"/>
<stop offset="1" stop-color="#E0E5EF"/>
</linearGradient>
<linearGradient id="paint2_linear_2159_1258" x1="177.445" y1="162.077" x2="168.782" y2="162.21" gradientUnits="userSpaceOnUse">
<stop stop-color="#E0E5EF" stop-opacity="0"/>
<stop offset="1" stop-color="#E0E5EF"/>
</linearGradient>
<linearGradient id="paint3_linear_2159_1258" x1="193.065" y1="169.887" x2="184.402" y2="170.021" gradientUnits="userSpaceOnUse">
<stop stop-color="#E0E5EF" stop-opacity="0"/>
<stop offset="1" stop-color="#E0E5EF"/>
</linearGradient>
<linearGradient id="paint4_linear_2159_1258" x1="54.5706" y1="172.112" x2="42.6552" y2="172.297" gradientUnits="userSpaceOnUse">
<stop stop-color="#E0E5EF" stop-opacity="0"/>
<stop offset="1" stop-color="#E0E5EF"/>
</linearGradient>
<linearGradient id="paint5_linear_2159_1258" x1="146.699" y1="183.263" x2="56.2161" y2="142.063" gradientUnits="userSpaceOnUse">
<stop stop-color="#E8EBF1" stop-opacity="0.239"/>
<stop offset="1" stop-color="#A2ABB9"/>
</linearGradient>
<linearGradient id="paint6_linear_2159_1258" x1="113.116" y1="123.866" x2="113.197" y2="120.661" gradientUnits="userSpaceOnUse">
<stop stop-color="#A2ABB9"/>
<stop offset="1" stop-color="#E7EAF0"/>
</linearGradient>
<linearGradient id="paint7_linear_2159_1258" x1="79.728" y1="163.817" x2="99.8452" y2="134.48" gradientUnits="userSpaceOnUse">
<stop stop-color="#A2ABB9"/>
<stop offset="1" stop-color="#E7EAF0"/>
</linearGradient>
<linearGradient id="paint8_linear_2159_1258" x1="79.728" y1="172.864" x2="99.9729" y2="114.76" gradientUnits="userSpaceOnUse">
<stop stop-color="#A2ABB9"/>
<stop offset="1" stop-color="#E7EAF0"/>
</linearGradient>
<linearGradient id="paint9_linear_2159_1258" x1="146.505" y1="172.867" x2="126.26" y2="114.763" gradientUnits="userSpaceOnUse">
<stop stop-color="#A2ABB9"/>
<stop offset="1" stop-color="#E7EAF0"/>
</linearGradient>
<linearGradient id="paint10_linear_2159_1258" x1="102.825" y1="83.4043" x2="85.4716" y2="59.3458" gradientUnits="userSpaceOnUse">
<stop stop-color="#A2ABB9"/>
<stop offset="1" stop-color="#E7EAF0"/>
</linearGradient>
<clipPath id="clip0_2159_1258">
<rect width="227" height="227" fill="white"/>
</clipPath>
</defs>
</svg>
