<svg width="93" height="93" viewBox="0 0 93 93" fill="none" xmlns="http://www.w3.org/2000/svg">
<g clip-path="url(#clip0_281_7770)">
<path d="M28.4411 67.6956C25.9189 68.7956 22.9821 67.6427 21.8821 65.1203L21.0371 63.1831C19.071 58.6751 20.1511 53.4046 23.7247 50.0679C26.4126 47.558 27.0899 43.5219 25.371 40.2529C23.4891 36.6733 19.2002 35.0082 15.3946 36.3796C11.3684 37.8278 9.11439 42.1749 10.2598 46.2712C10.3623 46.6374 10.4921 47.0018 10.6458 47.3543C11.7458 49.8766 10.5929 52.8134 8.0705 53.9134C5.54824 55.0134 2.61147 53.8605 1.51146 51.3381C1.17415 50.5648 0.888612 49.7629 0.662652 48.9544C-1.88086 39.8568 3.10554 30.214 12.0161 27.0044C20.4747 23.9563 30.0081 27.6581 34.1915 35.6155C37.9938 42.8477 36.4862 51.7858 30.5253 57.3517C30.0321 57.8119 29.8899 58.5543 30.1711 59.1991L31.0161 61.1363C32.1165 63.6588 30.9636 66.5955 28.4411 67.6956Z" fill="#FFD15B"/>
<path d="M34.368 81.2841C31.8457 82.3842 28.909 81.2313 27.809 78.7088L27.7924 78.6711C26.6924 76.1488 27.8453 73.212 30.3677 72.112C32.89 71.012 35.8268 72.1649 36.9268 74.6873L36.9433 74.7251C38.0433 77.2475 36.8903 80.1841 34.368 81.2841Z" fill="#FFD15B"/>
<path d="M4.70036 47.1961C4.92542 48.0048 5.21223 48.8056 5.54953 49.5789C6.3335 51.3764 8.05 52.4797 9.88457 52.5647C9.40685 53.1314 8.796 53.5987 8.07071 53.9152C5.5499 55.0146 2.61222 53.863 1.51184 51.34C1.17454 50.5666 0.890089 49.7648 0.664854 48.9562C-1.88066 39.8574 3.10756 30.2151 12.017 27.0055C12.3362 26.8907 12.6571 26.786 12.9797 26.6914C6.0396 30.7936 2.46673 39.2048 4.70036 47.1961Z" fill="#FFC344"/>
<path d="M27.762 48.3066C24.1888 51.6434 23.1077 56.9153 25.0737 61.4231L25.9184 63.3599C26.7023 65.1576 28.4212 66.2596 30.2558 66.3446C29.778 66.9114 29.1672 67.3787 28.4419 67.6951C25.9189 68.7955 22.9834 67.643 21.883 65.12L21.0384 63.1832C19.0725 58.6754 20.1513 53.4046 23.7267 50.0667C26.4139 47.5561 27.0901 43.5224 25.3713 40.2536C23.7559 37.1786 20.3645 35.5162 17.0291 35.98C17.7313 35.4049 18.539 34.9412 19.4331 34.6193C23.2386 33.2474 27.5272 34.9121 29.4091 38.4926C31.1278 41.7614 30.4494 45.7962 27.762 48.3066Z" fill="#FFC344"/>
<path d="M36.1825 79.9339C35.7048 80.5006 35.094 80.968 34.3687 81.2844C31.8457 82.3848 28.9102 81.2323 27.8098 78.7093L27.7929 78.6704C26.6935 76.1496 27.8451 73.2119 30.368 72.1115C31.0935 71.7951 31.8515 71.6654 32.5919 71.701C31.407 73.1057 31.0454 75.1152 31.8283 76.9105L31.8451 76.9494C32.6293 78.7467 34.3482 79.8489 36.1825 79.9339Z" fill="#FFC344"/>
<path d="M68.1852 67.21C65.5273 66.4978 63.9497 63.7656 64.6619 61.1076L65.2091 59.0662C66.482 54.3157 70.6121 50.8678 75.4865 50.4868C79.1529 50.1999 82.1984 47.4662 82.8923 43.8387C83.6523 39.8666 81.3367 35.891 77.5063 34.591C73.4554 33.2135 68.9832 35.2073 67.325 39.1244C67.1768 39.4744 67.0511 39.8404 66.9517 40.2119C66.2395 42.8698 63.5073 44.4474 60.8493 43.7352C58.1914 43.023 56.6138 40.2907 57.326 37.6328C57.5444 36.8179 57.821 36.0129 58.1483 35.2398C61.8309 26.5407 71.741 22.1094 80.7092 25.1546C89.2232 28.0443 94.3696 36.8819 92.6804 45.7116C91.1448 53.7368 84.3941 59.7858 76.2635 60.4219C75.5911 60.4744 75.0169 60.9663 74.8349 61.6457L74.2878 63.6871C73.5754 66.3449 70.8432 67.9223 68.1852 67.21Z" fill="#6FD7A3"/>
<path d="M64.3478 81.532C61.6899 80.8197 60.1124 78.0875 60.8246 75.4296L60.8353 75.3896C61.5475 72.7316 64.2797 71.1541 66.9377 71.8663C69.5956 72.5785 71.1732 75.3108 70.461 77.9687L70.4502 78.0087C69.738 80.6668 67.006 82.2442 64.3478 81.532Z" fill="#6FD7A3"/>
<path d="M62.4026 36.3805C62.0745 37.1532 61.7995 37.958 61.5812 38.7731C61.0737 40.6674 61.7281 42.5999 63.1095 43.8101C62.3826 43.9555 61.6137 43.9402 60.8493 43.7353C58.193 43.0235 56.6138 40.2918 57.3262 37.6329C57.5446 36.8179 57.8219 36.0136 58.1502 35.2411C61.8318 26.5398 71.7431 22.1099 80.7105 25.1544C81.0316 25.2635 81.3478 25.3818 81.659 25.5089C73.675 24.39 65.6378 28.7396 62.4026 36.3805Z" fill="#3EC3A4"/>
<path d="M79.7413 51.6269C74.8673 52.0085 70.7353 55.4568 69.4626 60.2068L68.9157 62.2478C68.4081 64.1421 69.065 66.0753 70.4463 67.2854C69.7194 67.4307 68.9505 67.4154 68.1862 67.2105C65.5273 66.4981 63.9507 63.767 64.6631 61.1082L65.21 59.0672C66.4829 54.317 70.6122 50.8682 75.4887 50.4873C79.1549 50.1994 82.1983 47.4669 82.892 43.8396C83.5459 40.4282 81.9304 37.0142 79.0332 35.2976C79.9407 35.2858 80.8614 35.4267 81.7613 35.7322C85.5923 37.0319 87.9075 41.0069 87.1469 44.9797C86.4532 48.6073 83.4075 51.3392 79.7413 51.6269Z" fill="#3EC3A4"/>
<path d="M66.6091 81.6073C65.8821 81.7526 65.1132 81.7374 64.3489 81.5325C61.69 80.8201 60.1134 78.0889 60.8258 75.4303L60.8367 75.3894C61.5485 72.7331 64.2802 71.1539 66.9389 71.8663C67.7034 72.0712 68.377 72.4423 68.9337 72.9316C67.1316 73.2912 65.596 74.637 65.0891 76.529L65.0782 76.5699C64.5709 78.464 65.2277 80.3972 66.6091 81.6073Z" fill="#3EC3A4"/>
<path d="M48.7349 60.5889C45.6454 60.5889 43.1407 58.0842 43.1407 54.9947V52.6218C43.1407 47.1001 46.6179 42.1607 51.7932 40.331C55.6859 38.9546 58.1945 35.1049 57.8928 30.9693C57.5626 26.4408 53.8962 22.8022 49.3644 22.5054C44.571 22.1888 40.3002 25.6505 39.6403 30.3804C39.5813 30.8031 39.5515 31.2365 39.5515 31.6682C39.5515 34.7578 37.0469 37.2624 33.9573 37.2624C30.8678 37.2624 28.3632 34.7578 28.3632 31.6682C28.3632 30.7212 28.4293 29.7676 28.5595 28.8341C30.0254 18.3298 39.485 10.6444 50.0956 11.3407C60.1686 12.0004 68.3181 20.089 69.0519 30.1557C69.7187 39.3051 64.1556 47.827 55.523 50.8795C54.8089 51.1319 54.3292 51.832 54.3292 52.6218V54.9947C54.3291 58.0842 51.8244 60.5889 48.7349 60.5889Z" fill="#0573CE"/>
<path d="M48.7349 77.2347C45.6454 77.2347 43.1407 74.73 43.1407 71.6405V71.5942C43.1407 68.5046 45.6454 66 48.7349 66C51.8244 66 54.3291 68.5046 54.3291 71.5942V71.6405C54.3291 74.73 51.8244 77.2347 48.7349 77.2347Z" fill="#0573CE"/>
<path d="M33.5044 28.8353C33.373 29.7686 33.3087 30.7215 33.3087 31.6687C33.3087 33.8706 34.58 35.7762 36.4299 36.6871C35.6839 37.056 34.8456 37.2627 33.957 37.2627C30.8693 37.2627 28.363 34.7592 28.363 31.6687C28.363 30.7215 28.4301 29.7686 28.5614 28.8353C30.0256 18.3291 39.4869 10.6448 50.0965 11.3406C50.4765 11.3657 50.8538 11.402 51.2281 11.4496C42.2447 12.5562 34.7926 19.6089 33.5044 28.8353Z" fill="#0067C5"/>
<path d="M56.7386 40.3327C51.5637 42.1629 48.0849 47.1032 48.0849 52.6245V54.9967C48.0849 57.1986 49.3591 59.1044 51.2089 60.0153C50.4629 60.3842 49.6247 60.5909 48.7361 60.5909C45.6456 60.5909 43.1421 58.0872 43.1421 54.9967V52.6245C43.1421 47.103 46.6181 42.1629 51.7958 40.3327C55.6882 38.9551 58.1946 35.1075 57.8928 30.972C57.6105 27.0824 54.8666 23.8495 51.2256 22.8296C52.2065 22.553 53.2458 22.4384 54.3104 22.5083C58.8427 22.8046 62.5088 26.4426 62.8385 30.972C63.1402 35.1075 60.631 38.955 56.7386 40.3327Z" fill="#0067C5"/>
<path d="M51.2087 76.6599C50.4627 77.0289 49.6244 77.2356 48.7358 77.2356C45.6454 77.2356 43.1418 74.732 43.1418 71.6416V71.594C43.1418 68.5063 45.6454 66 48.7358 66C49.6244 66 50.4627 66.2067 51.2087 66.5756C49.3589 67.4893 48.0847 69.395 48.0847 71.594V71.6416C48.0847 73.8434 49.3589 75.749 51.2087 76.6599Z" fill="#0067C5"/>
</g>
<defs>
<clipPath id="clip0_281_7770">
<rect width="93" height="93" fill="white"/>
</clipPath>
</defs>
</svg>
